# xmcd CD database file
#
# Track frame offsets:
#        150
#        19498
#        31504
#        53356
#        65086
#        80639
#        92209
#        105207
#        113562
#        135130
#        153594
#        165987
#        180885
#        203390
#        219657
#        235975
#        252612
#        264133
#        279632
#        291718
#        297567
#        309447
#
# Disc length: 4209 seconds
#
# Revision: 0
# Processed by: cddbd v1.5.2PL0 Copyright (c) Steve Scherf et al.
# Submitted via: CUERipper 2.1.2a
#
DISCID=2d106f16
DTITLE=Various Artist - Revue du Son - CD test n°19
DYEAR=2007
DGENRE=Tests
TTITLE0=Zep Tepi-1 (Randy Weston and his African Rhytms trio "Portrait of Franck Edward Weston")
TTITLE1=Zep Tepi-2 (Randy Weston and his African Rhytms trio "Tamashi")
TTITLE2=Ewen Carruthers - When time turns arround
TTITLE3=Rosa (Rosa Passos "Eu nao existo sem vocé")
TTITLE4=Smak av sommer (Kari Bremnes "Sommerkjoledyr")
TTITLE5=Jul i gammel tid (Rolf Lislevand "A kom, a kom, Immanuel")
TTITLE6=J.S. Bach (Suites pour violoncelle-Anner Bylsma Suite n°1 en sol majeur BW 1007 "Prélude")
TTITLE7=David Russel (Renaissance favorites for guitar-Alonso Mudarra "Fantasia X que contrahase la harpa en la marena de Ludovico")
TTITLE8=Frédéric Chopin à Vienne (Pierre Goy-piano forte "Nocturne en si bémol mineur op9 n°1")
TTITLE9=Frédéric Chopin à Vienne (Pierre Goy-piano forte "Polonaise en sol# mineur")
TTITLE10=Ludwig von Beethoven (Sonates pour piano-Arthur Rubinstein-Sonate n°14 en do# mineur op.27 n°2 "Moonlight" "Allegretto")
TTITLE11=César Franck (Oeuvres pour piano-Sodi Braide-Prélude, fugue and variation pour orgue transcription "Prélude")
TTITLE12=Wolfgang Amadeus Mozart (Works for 2 pianists-Yaara Tal and Andreas Groethuysen-Sonate en ré majeur K381 "Allegro")
TTITLE13=Stephan Oliva (Miroirs avec Linda Sharrock "Sometimes I feel like a motherless child")
TTITLE14=Stephen Oliva (Miroirs avec Joey Baron "Moon river")
TTITLE15=Franz Schubert (Abendbilder-Christian Gerhaher "Drang in die ferme")
TTITLE16=Giacomo Puccini (La Bohème-Erich Leinsdorf-Rome orchestra and chorus "Nei Cieli Bigi"
TTITLE17=Da Vinci (Music from his time Josquin Desprez-Capella antiqua München "Tu solus qui facis mirabilia")
TTITLE18=Johann Ludwig Krebs (Hautbois and orgue-C. Todorovski, Ph. Pélissier "Fantasia 1 en do majeur"
TTITLE19=Da Vinci (Music from his time Marco Cara-Huelgas ensemble "Intrada")
TTITLE20=Bojan Z (Xenophonia "Izlaz")
TTITLE21=Minko Guerrini (I visionari "Impro")
EXTD=
EXTT0=
EXTT1=
EXTT2=
EXTT3=
EXTT4=
EXTT5=
EXTT6=
EXTT7=
EXTT8=
EXTT9=
EXTT10=
EXTT11=
EXTT12=
EXTT13=
EXTT14=
EXTT15=
EXTT16=
EXTT17=
EXTT18=
EXTT19=
EXTT20=
EXTT21=
PLAYORDER=
